<?xml version="1.0" encoding="utf-8"?>
<!-- Generator: Adobe Illustrator 15.0.2, SVG Export Plug-In . SVG Version: 6.00 Build 0)  -->
<!DOCTYPE svg PUBLIC "-//W3C//DTD SVG 1.1//EN" "http://www.w3.org/Graphics/SVG/1.1/DTD/svg11.dtd">
<svg version="1.1" id="Layer_1" xmlns="http://www.w3.org/2000/svg" xmlns:xlink="http://www.w3.org/1999/xlink" x="0px" y="0px"
	 width="1000px" height="1000px" viewBox="0 0 1000 1000" enable-background="new 0 0 1000 1000" xml:space="preserve">
<polygon fill="#0979B9" points="697.475,399 599.217,566 500.001,566 401.337,566 302.528,396.639 368.151,275 269.333,275
	203.296,397.688 351.787,654 500.001,654 648.769,654 796.706,399 "/>
<polygon fill="#2592C0" points="648.768,129 347.531,129 300.997,216 453,216 453,508 540,508 540,216 599.217,216 666.032,340
	764.72,340 "/>
<g>
	<defs>
		<rect id="SVGID_1_" width="1000" height="1000"/>
	</defs>
	<clipPath id="SVGID_2_">
		<use xlink:href="#SVGID_1_"  overflow="visible"/>
	</clipPath>
	<path clip-path="url(#SVGID_2_)" fill="#0979B9" d="M12.323,795.585v-0.256c0-24.625,18.502-46.188,45.679-46.188
		c27.178,0,45.423,21.308,45.423,45.934v0.255c0,24.626-18.501,46.189-45.678,46.189C30.569,841.519,12.323,820.21,12.323,795.585
		 M92.963,795.585v-0.256c0-20.287-14.801-36.874-35.216-36.874s-34.961,16.332-34.961,36.619v0.255
		c0,20.288,14.801,36.875,35.216,36.875S92.963,815.872,92.963,795.585"/>
	<path clip-path="url(#SVGID_2_)" fill="#0979B9" d="M124.738,750.672h33.43c20.16,0,33.43,10.718,33.43,28.325v0.256
		c0,19.267-16.078,29.22-35.089,29.22h-21.691v31.515h-10.08V750.672z M156.892,799.285c14.801,0,24.498-7.911,24.498-19.649v-0.256
		c0-12.759-9.57-19.394-23.988-19.394h-22.584v39.299H156.892z"/>
	<polygon clip-path="url(#SVGID_2_)" fill="#0979B9" points="209.975,750.672 274.538,750.672 274.538,759.859 220.055,759.859
		220.055,790.354 268.796,790.354 268.796,799.54 220.055,799.54 220.055,830.801 275.176,830.801 275.176,839.987 209.975,839.987
			"/>
	<polygon clip-path="url(#SVGID_2_)" fill="#0979B9" points="295.467,750.672 304.909,750.672 361.178,822.252 361.178,750.672
		371.003,750.672 371.003,839.987 362.964,839.987 305.292,766.748 305.292,839.987 295.467,839.987 	"/>
	<polygon clip-path="url(#SVGID_2_)" fill="#2592C0" points="429.938,759.986 399.954,759.986 399.954,750.672 470.13,750.672
		470.13,759.986 440.146,759.986 440.146,839.987 429.938,839.987 	"/>
	<path clip-path="url(#SVGID_2_)" fill="#2592C0" d="M489.017,750.672h38.407c10.973,0,19.777,3.317,25.392,8.932
		c4.338,4.338,6.89,10.59,6.89,17.607v0.255c0,14.802-10.207,23.478-24.243,26.029l27.433,36.492h-12.376l-25.901-34.704h-25.52
		v34.704h-10.08V750.672z M526.53,796.223c13.397,0,22.968-6.891,22.968-18.374v-0.255c0-10.973-8.422-17.607-22.84-17.607h-27.561
		v36.236H526.53z"/>
	<path clip-path="url(#SVGID_2_)" fill="#2592C0" d="M614.319,750.033h9.442l40.702,89.954h-10.846l-10.463-23.604h-48.613
		l-10.59,23.604h-10.335L614.319,750.033z M639.2,807.195l-20.287-45.423l-20.415,45.423H639.2z"/>
	<path clip-path="url(#SVGID_2_)" fill="#2592C0" d="M672.891,795.585v-0.256c0-25.264,18.884-46.188,45.168-46.188
		c16.204,0,25.901,5.741,34.833,14.163l-6.89,7.4c-7.528-7.146-15.949-12.249-28.071-12.249c-19.776,0-34.578,16.076-34.578,36.619
		v0.255c0,20.671,14.929,36.875,34.578,36.875c12.249,0,20.288-4.721,28.837-12.887l6.635,6.507
		c-9.314,9.442-19.522,15.694-35.727,15.694C691.901,841.519,672.891,821.231,672.891,795.585"/>
	<rect x="771.906" y="750.672" clip-path="url(#SVGID_2_)" fill="#2592C0" width="10.079" height="89.315"/>
	<polygon clip-path="url(#SVGID_2_)" fill="#2592C0" points="808.143,750.672 817.585,750.672 873.854,822.252 873.854,750.672
		883.678,750.672 883.678,839.987 875.64,839.987 817.967,766.748 817.967,839.987 808.143,839.987 	"/>
	<path clip-path="url(#SVGID_2_)" fill="#2592C0" d="M904.991,795.585v-0.256c0-24.498,17.99-46.188,44.785-46.188
		c15.056,0,24.37,4.339,33.302,11.866l-6.507,7.655c-6.892-5.997-14.546-10.207-27.178-10.207c-19.777,0-33.94,16.715-33.94,36.619
		v0.255c0,21.309,13.653,37.13,35.344,37.13c10.208,0,19.649-3.955,25.774-8.932v-22.201h-27.178v-9.059h36.875v35.599
		c-8.294,7.4-20.799,13.652-35.854,13.652C922.344,841.519,904.991,821.104,904.991,795.585"/>
</g>
</svg>

